<svg xmlns="http://www.w3.org/2000/svg" width="16" height="17" viewBox="0 0 16 17" fill="none">
  <path d="M15.9908 8.6497C15.9908 7.99419 15.9364 7.51584 15.8186 7.01978H8.15935V9.97843H12.6551C12.5645 10.7137 12.0751 11.821 10.9874 12.5651L10.9721 12.6641L13.3938 14.4976L13.5616 14.5139C15.1025 13.1232 15.9908 11.0769 15.9908 8.6497Z" fill="white"/>
  <path d="M8.15935 16.445C10.3619 16.445 12.211 15.7363 13.5616 14.5139L10.9874 12.565C10.2985 13.0345 9.37392 13.3623 8.15935 13.3623C6.00208 13.3623 4.17113 11.9716 3.51845 10.0493L3.42278 10.0573L0.90465 11.9618L0.871719 12.0513C2.21321 14.6556 4.96873 16.445 8.15935 16.445Z" fill="white"/>
  <path d="M3.51844 10.0493C3.34623 9.55324 3.24656 9.0217 3.24656 8.47251C3.24656 7.92326 3.34623 7.39177 3.50938 6.89571L3.50482 6.79006L0.955134 4.85492L0.871713 4.8937C0.318822 5.97443 0.00157166 7.18805 0.00157166 8.47251C0.00157166 9.75697 0.318822 10.9705 0.871713 12.0513L3.51844 10.0493Z" fill="white"/>
  <path d="M8.15935 3.58269C9.69117 3.58269 10.7245 4.22934 11.3137 4.76974L13.616 2.57285C12.202 1.2884 10.3619 0.5 8.15935 0.5C4.96873 0.5 2.21321 2.28937 0.871719 4.89371L3.50939 6.89573C4.17113 4.97347 6.00208 3.58269 8.15935 3.58269Z" fill="white"/>
</svg>